<svg width="16" height="16" viewBox="0 0 16 16" fill="none" xmlns="http://www.w3.org/2000/svg">
<g clip-path="url(#clip0)">
<path d="M16 4.9648V4.33899C16 3.60165 15.4023 3.00391 14.6649 3.00391H1.33505C0.597716 3.00391 0 3.60162 0 4.33899V4.9648C0 5.17217 0.168125 5.34029 0.375489 5.34029H15.6245C15.8319 5.34029 16 5.17217 16 4.9648Z" fill="#737AAE"/>
<path d="M0 7.03V11.661C0 12.3984 0.597716 12.9961 1.33508 12.9961H14.6649C15.4023 12.9961 16 12.3984 16 11.661V7.03C16 6.82264 15.8319 6.65451 15.6245 6.65451H0.375489C0.168125 6.65451 0 6.8226 0 7.03H0ZM6.33115 10.6597H2.99349C2.63058 10.6597 2.33639 10.3655 2.33639 10.0026C2.33639 9.6397 2.63058 9.34551 2.99349 9.34551H6.33118C6.6941 9.34551 6.98829 9.6397 6.98829 10.0026C6.98829 10.3655 6.69406 10.6597 6.33115 10.6597ZM13.0065 10.6701C12.8848 10.6701 12.771 10.637 12.6728 10.5801C12.5745 10.637 12.4607 10.6701 12.339 10.6701C11.9703 10.6701 11.6715 10.3712 11.6715 10.0026C11.6715 9.63395 11.9703 9.33509 12.339 9.33509C12.4607 9.33509 12.5745 9.3682 12.6728 9.42511C12.771 9.3682 12.8848 9.33509 13.0065 9.33509C13.3752 9.33509 13.6741 9.63395 13.6741 10.0026C13.6741 10.3712 13.3752 10.6701 13.0065 10.6701Z" fill="#737AAE"/>
</g>
<defs>
<clipPath id="clip0">
<rect width="16" height="16" fill="white"/>
</clipPath>
</defs>
</svg>
